<svg width="142" height="425" viewBox="0 0 142 425" fill="none" xmlns="http://www.w3.org/2000/svg">
<path fill-rule="evenodd" clip-rule="evenodd" d="M46.2986 1.91456C18.9817 8.98319 3.88429 29.2514 0.443235 63.4773C-1.07951 78.6164 1.3479 93.5073 7.31527 105.643L10.3955 111.906L7.50664 120.295C4.87228 127.946 4.61682 129.688 4.60491 140.13C4.59118 152.49 6.04067 158.209 10.836 164.71C12.7726 167.335 12.92 168.112 12.1298 171.529C10.9733 176.527 11.6949 186.104 13.6507 191.725C15.0929 195.869 15.0938 196.41 13.6691 199.967C11.314 205.846 10.9138 215.598 12.7607 222.089C14.6616 228.768 14.6625 228.796 13.3211 236.636C11.976 244.493 12.7836 250.261 15.7165 253.747C20.1043 258.962 27.8829 256.041 27.8829 249.178V246.166L31.0565 248.953C39.8579 256.681 54.8967 264.823 70.919 270.534C75.7033 272.239 79.6058 273.987 79.5921 274.418C79.528 276.367 73.7712 277.887 66.3406 277.917C57.5128 277.954 54.1871 276.675 44.7466 269.612C38.5036 264.942 35.2988 264.497 31.9621 267.835C27.3454 272.452 29.694 277.635 39.0997 283.584C41.7707 285.273 42.5334 286.342 42.5334 288.395C42.5334 293.345 38.8873 302.853 34.352 309.733C27.1137 320.712 25.6276 325.995 25.6459 340.678C25.6642 355.441 27.3207 362.851 34.917 382.149C40.8276 397.163 42.7614 406.123 41.9584 414.772C41.4044 420.728 41.4731 421.017 43.9134 422.936C49.2343 427.122 52.2477 425.332 59.0557 413.937C71.5764 392.981 84.9872 363.2 89.8502 345.555C92.1733 337.125 92.3326 335.344 92.3683 317.326C92.3976 302.317 92.0726 296.789 90.8868 292.143L89.3677 286.191L96.0411 279.323C108.362 266.642 115.863 252.488 119.578 234.909C120.914 228.592 121.288 223.354 121.179 212.474C121.063 200.801 121.32 197.637 122.623 194.66C124.536 190.289 128.585 172.835 128.597 168.91C128.602 167.362 129.827 163.841 131.32 161.086C138.449 147.921 138.531 125.848 131.506 111.628C129.872 108.324 129.876 108.293 132.37 103.938C136.228 97.2005 140.349 83.6548 141.494 73.9433C145.446 40.4262 125.878 9.2048 96.0997 1.51529C87.5629 -0.688907 55.3637 -0.430666 46.2986 1.91456ZM99.6533 18.5765C126.76 31.5197 135.246 67.589 118.508 98.7106C116.538 102.372 113.473 107.273 111.694 109.602L108.461 113.837V100.089C108.461 80.7455 105.191 63.0075 100.944 59.3152C98.4025 57.1046 93.9249 57.286 91.351 59.7035C88.7295 62.1669 88.7148 63.785 91.2292 72.9049C93.9735 82.8563 94.229 112.368 91.6807 125.02C89.8045 134.334 89.571 134.661 77.5236 144.915L69.9355 151.374L67.4513 149.208C57.4468 140.485 56.3022 138.951 52.5499 129.236C48.2078 117.992 44.9059 105.776 43.5242 95.8379C41.1828 79.0047 43.2587 58.8702 48.3754 48.7714C51.5417 42.5223 51.5372 38.2998 48.3616 35.8017C41.4749 30.3832 35.5936 36.8218 30.9293 54.884C26.8271 70.7666 27.0505 91.6429 31.5235 110.57L33.2074 117.694L29.7975 113.761C18.0331 100.189 12.9777 83.0816 15.081 63.9626C17.4461 42.4646 25.775 27.2221 39.01 20.1672C47.5183 15.6315 53.4115 14.757 74.1238 14.9548L92.437 15.1306L99.6533 18.5765ZM64.7254 59.7731C62.2385 62.4224 60.9373 72.0377 60.2341 92.9689C59.3606 118.977 62.1103 129.141 70.0207 129.141C76.032 129.141 77.7965 125.391 75.9294 116.581C74.36 109.173 74.2098 94.0412 75.5678 80.1484C77.2379 63.0643 77.1711 61.4608 74.7089 59.4654C71.7403 57.0589 67.1409 57.2008 64.7254 59.7731ZM121.678 136.925C121.759 150.533 119.563 155.523 109.258 165.147C103.153 170.848 102.051 172.326 102.051 174.818C102.051 178.428 105.563 182.254 108.878 182.254C110.16 182.254 111.208 182.435 111.208 182.657C111.208 182.879 110.127 186.073 108.804 189.754C104.309 202.275 97.4136 214.1 89.7779 222.384C86.7224 225.7 85.6932 226.28 83.6128 225.864C79.8659 225.114 66.3406 219.761 66.3406 219.028C66.3406 218.676 71.3008 214.546 77.3643 209.85C89.5325 200.425 91.5625 198.102 90.6835 194.6C89.2532 188.902 83.241 186.946 78.3257 190.58L75.7344 192.497L71.7247 189.435C69.5189 187.752 65.7574 185.138 63.3666 183.628C60.9749 182.117 59.0383 180.674 59.0611 180.422C59.0849 180.171 66.3626 173.783 75.2326 166.228C94.1246 150.139 109.998 135.127 115.77 127.893C119.674 122.997 119.915 122.848 120.746 124.8C121.224 125.928 121.645 131.384 121.678 136.925ZM47.3755 151.098C53.3126 156.283 58.0512 160.818 57.9056 161.178C57.4871 162.215 46.4809 172.181 45.7538 172.181C45.394 172.181 41.3284 169.952 36.7199 167.227C23.474 159.398 19.6382 154.241 18.9295 143.31C18.6997 139.771 19.0129 134.463 19.6245 131.514L20.737 126.153L28.6593 133.914C33.017 138.182 41.4392 145.915 47.3755 151.098ZM35.9855 183.776C47.4725 190.516 62.287 200.111 63.0085 201.278C63.4774 202.037 56.4826 208.136 51.9355 210.931C48.9715 212.755 32.0015 197.558 28.8251 190.236C26.9883 186.003 25.5205 178.591 26.5194 178.591C26.8656 178.591 31.1252 180.924 35.9855 183.776ZM41.16 222.768C48.835 227.705 56.2253 231.44 65.1961 234.916C68.8477 236.33 71.8346 237.762 71.8346 238.096C71.8346 238.866 58.8331 246.336 56.3718 246.98C53.7402 247.667 44.276 241.658 37.468 234.976C31.1179 228.744 27.2218 221.912 26.3372 215.459L25.7439 211.13L30.2471 214.887C32.724 216.954 37.6347 220.501 41.16 222.768ZM105.523 231.017C104.276 238.017 100.918 247.222 97.1618 253.938C92.3335 262.574 92.4425 262.528 83.5414 259.597C71.2852 255.561 71.4665 256.069 80.2083 250.28C84.7509 247.272 91.5781 241.379 97.0153 235.772C102.051 230.578 106.219 226.302 106.275 226.269C106.333 226.236 105.994 228.374 105.523 231.017ZM76.5429 295.845C76.8982 297.579 77.063 299.125 76.9092 299.278C76.1629 300.024 63.3327 300.553 59.5931 299.993C55.1275 299.324 55.0533 299.159 56.6859 293.517C56.8425 292.978 60.8567 292.619 66.4249 292.646L75.8983 292.69L76.5429 295.845ZM67.9431 314.578L78.2442 314.577L78.2369 321.446C78.2278 331.247 76.8396 338.662 72.6651 351.209C68.2727 364.414 54.3638 393.34 53.732 390.586C53.5012 389.578 51.2972 383.696 48.835 377.514C42.7523 362.24 40.7415 354.606 40.0969 344.341C39.4193 333.561 41.1297 326.07 46.002 318.482L49.4009 313.188L53.5214 313.884C55.7876 314.266 62.2779 314.579 67.9431 314.578Z" fill="black"/>
</svg>
