<svg width="501" height="500" viewBox="0 0 501 500" fill="none" xmlns="http://www.w3.org/2000/svg">
<path fill-rule="evenodd" clip-rule="evenodd" d="M336.619 1.01132C415.565 11.1453 479.104 68.7087 496.338 145.71C506.201 189.776 499.704 223.582 476.704 247.872L471.687 253.17L481.88 273.693C490.437 290.924 492.161 295.195 492.627 300.323C494.096 316.507 483.955 330.071 467.056 334.525C463.262 335.525 460.025 336.436 459.863 336.551C459.7 336.666 457.087 350.222 454.057 366.675C447.801 400.639 446.392 404.629 437.476 413.627C431.018 420.146 422.759 424.404 413.503 425.987C407.82 426.959 403.963 426.644 379.813 423.234C356.483 419.941 352.339 419.587 351.135 420.789C348.497 423.424 342.772 439.225 341.206 448.19C340.132 454.342 339.644 463.7 339.644 478.156V499.176H331.467H323.289L323.761 473.239C324.271 445.242 325.125 439.677 331.105 425.403C332.558 421.936 333.965 418.41 334.232 417.566C334.624 416.326 332.074 415.512 320.906 413.314C313.31 411.819 306.848 410.35 306.547 410.049C306.051 409.553 308.171 396.782 308.993 395.313C309.184 394.973 316.726 396.207 325.752 398.054C341.914 401.363 401.703 410.538 407.104 410.538C408.627 410.538 412.29 409.821 415.246 408.943C421.696 407.031 430.428 398.953 432.356 393.118C433.038 391.056 436.208 375.072 439.401 357.597C443.149 337.085 445.749 325.284 446.736 324.298C447.577 323.458 452.35 321.733 457.343 320.463C462.337 319.194 467.859 317.309 469.615 316.273C473.28 314.11 476.798 307.612 476.798 303.002C476.798 300.947 471.152 288.543 460.577 267.367C448.585 243.354 444.481 234.214 444.838 232.311C445.104 230.894 446.474 225.204 447.882 219.664C453.024 199.429 453.824 178.628 450.013 164.265C447.257 153.88 437.613 135.899 436.107 138.334C435.804 138.823 426.652 164.573 415.768 195.558C392.463 261.905 389.312 270.054 379 290.675C360.136 328.4 338.335 358.597 308.441 388.417C290.029 406.782 271.466 422.126 251.965 435.1C238.076 444.341 216.931 456.476 206.525 461.179C202.919 462.807 199.861 464.237 199.73 464.354C199.598 464.472 198.345 472.437 196.944 482.053C195.543 491.669 194.211 499.723 193.984 499.95C193.596 500.339 179.15 498.359 178.638 497.849C178.508 497.718 179.23 491.957 180.244 485.047C181.259 478.138 182.003 472.384 181.898 472.261C181.793 472.139 178.328 473.42 174.199 475.106C162.682 479.81 136.055 487.55 119.795 490.922C89.9772 497.104 67.6554 499.176 30.8558 499.176H5.74461L3.26978 496.703C0.330056 493.768 0.0204653 489.224 2.55882 486.254C3.55621 485.086 21.2057 477.119 43.1503 467.932C64.5049 458.991 86.0572 449.655 91.0441 447.183C99.8795 442.805 113.109 434.748 112.484 434.126C112.313 433.955 105.606 436.087 97.5791 438.865C72.482 447.551 41.6234 454.818 16.6887 457.913C7.96932 458.995 6.58469 458.948 4.3509 457.485C2.96625 456.579 1.53522 454.648 1.16914 453.192C-0.148951 447.946 1.73992 445.709 12.573 439.69C32.2183 428.775 53.5941 413.132 64.8327 401.445L69.8751 396.202L65.7877 398.725C50.1542 408.373 20.6097 418.596 8.35458 418.596C4.66857 418.596 0.793972 414.406 0.793972 410.421C0.793972 407.728 1.84179 406.259 7.09699 401.585C26.9369 383.943 41.0506 365.08 50.377 343.74C60.2682 321.109 79.8096 251.443 91.6775 196.507C99.5487 160.072 102.486 150.011 110.577 131.781C141.117 62.9714 205.52 14.0069 281.152 2.09814C295.516 -0.164144 323.23 -0.707053 336.619 1.01132ZM290.251 17.2774C208.254 26.806 138.555 85.5309 115.796 164.265C114.195 169.805 110.771 184.309 108.187 196.497C97.8373 245.329 77.0262 321.332 67.7855 344.044C61.5238 359.436 52.7258 374.72 42.9415 387.204C40.1914 390.713 38.1583 393.8 38.4235 394.065C39.2797 394.921 56.5389 385.703 64.2124 380.291C73.9322 373.439 86.7178 360.547 93.1721 351.092C96.0008 346.947 111.136 321.346 126.806 294.2C142.476 267.055 156.208 244.051 157.323 243.082C161.778 239.207 170.219 242.885 170.219 248.702C170.219 251.489 134.592 331.109 126.199 347.081C119.646 359.55 108.545 376.412 99.0122 388.378C90.3261 399.28 69.2539 420.205 58.5135 428.593C53.9552 432.153 50.3831 435.221 50.5747 435.412C51.2665 436.103 75.2372 429.506 89.5405 424.688C116.618 415.567 140.116 404.718 165.592 389.572C172.753 385.314 179.788 380.659 181.224 379.227C184.498 375.96 200.633 348.914 207.369 335.402C217.483 315.112 226.439 291.889 232.581 270.026C235.033 261.295 250.898 193.366 250.898 191.594C250.898 191.163 256.526 192.285 263.103 194.023L266.737 194.984L260.328 223.44C246.785 283.571 239.98 304.928 223.74 338.268C220.03 345.885 217.363 352.117 217.813 352.117C219.768 352.117 257.477 313.206 266.621 301.755C288.198 274.73 298.614 257.904 317.751 219.16C325.55 203.371 332.086 190.256 332.275 190.015C332.668 189.519 346.704 196.143 346.704 196.825C346.704 199.182 314.488 261.275 307.602 272.19C273.974 325.493 228.122 370.584 174.928 402.665C163.512 409.55 160.63 411.84 154.406 418.975C144.94 429.827 133.016 440.123 119.291 449.297C106.149 458.081 94.6676 463.863 69.15 474.547C58.7666 478.893 50.4587 482.637 50.6877 482.867C50.9176 483.095 57.9054 482.763 66.2183 482.128C115.056 478.398 157.58 467 199.969 446.28C238.11 427.637 266.339 407.419 296.851 376.893C316.733 357.001 327.626 343.775 342.143 321.9C356.938 299.606 368.293 278.071 377.446 254.948C380.883 246.265 423.348 125.679 423.348 124.602C423.348 123.953 413.885 115.843 408.352 111.754C407.032 110.778 407.581 109.723 412.144 104.461L417.479 98.3099L427.238 106.279C445.123 120.885 455.036 132.951 461.196 147.61C466.948 161.302 468.234 168.477 468.152 186.424C468.08 202.465 466.732 212.919 462.99 226.502C461.668 231.298 461.606 232.817 462.642 235.064L463.901 237.794L468.344 232.773C473.534 226.907 479.95 214.371 482.527 205.058C484.73 197.099 484.98 172.484 482.978 160.739C473.978 107.949 444.181 64.5689 399.145 38.6896C365.929 19.6032 330.383 12.6129 290.251 17.2774Z" fill="white"/>
</svg>
