<svg width="389" height="425" viewBox="0 0 389 425" fill="none" xmlns="http://www.w3.org/2000/svg">
<path fill-rule="evenodd" clip-rule="evenodd" d="M28.4711 2.08682L26.3904 4.17363L26.7066 64.1352C27.0658 132.29 26.796 129.286 34.3623 149.414C38.7497 161.083 39.6096 166.834 38.1116 174.471C36.8527 180.887 34.393 185.842 27.6228 195.596C9.72235 221.385 9.48978 242.931 26.8721 265.21C43.1503 286.075 43.9821 287.65 44.5193 298.617C45.0746 309.985 43.7388 312.309 26.5021 329.956C18.9217 337.717 11.5821 345.562 10.1925 347.388C6.6708 352.017 2.69725 360.193 1.23644 365.818C-0.562043 372.742 -0.370855 385.424 1.62958 391.917C6.54251 407.865 20.2517 420.216 36.9876 423.772C40.583 424.537 47.5973 424.977 56.3348 424.986C68.9962 424.999 70.1806 424.871 71.8533 423.307C73.6609 421.619 74.3097 417.26 73.0319 415.399C72.6975 414.913 70.6639 413.313 68.5129 411.846C62.0382 407.427 56.4573 401.096 53.1848 394.454C50.4163 388.837 50.0952 387.476 49.8005 380.116C49.1955 365.004 53.2303 357.712 72.9938 338.192C91.4264 319.986 94.9158 313.298 94.1527 297.642C93.5369 285.021 90.0252 277.429 78.1128 262.96C66.5166 248.874 63.1067 240.877 63.9476 229.732C64.5302 222.005 66.8352 215.498 71.6248 208.057C73.7254 204.794 77.3952 199.093 79.7813 195.388C84.9989 187.284 87.7351 179.436 88.3426 170.828C88.9095 162.796 87.6755 156.323 83.5488 145.679C81.7785 141.113 79.596 134.423 78.6979 130.812C77.7999 127.2 76.4914 123.671 75.7904 122.968C73.7486 120.919 68.7744 121.332 66.8559 123.708C64.2323 126.957 65.1584 131.386 73.1841 153.979C78.6756 169.436 76.9168 178.235 64.8671 195.596C46.9666 221.385 46.7341 242.931 64.1164 265.21C80.3946 286.075 81.2264 287.65 81.7636 298.617C82.3189 309.985 80.9831 312.309 63.7464 329.956C48.2354 345.836 45.9933 348.549 42.3119 355.89C38.6181 363.255 37.2467 369.387 37.2583 378.482C37.2724 390.168 40.2329 399.415 46.6389 407.783C48.3025 409.956 49.6631 411.971 49.6631 412.262C49.6631 412.552 47.1487 412.578 44.0757 412.32C25.3558 410.746 12.4188 396.74 12.4188 378.049C12.4188 364.364 16.7508 356.972 35.7602 338.215C54.1589 320.061 57.6731 313.32 56.9084 297.642C56.2926 285.021 52.7809 277.429 40.8685 262.96C29.2723 248.874 25.8624 240.877 26.7033 229.732C27.2859 222.005 29.5909 215.498 34.3805 208.057C36.4811 204.794 40.1633 199.073 42.5644 195.344C48.8719 185.546 50.9112 178.657 50.8781 167.261C50.8508 157.569 51.2042 158.995 43.8762 139.038C39.5964 127.384 39.4896 126.056 39.1263 80.3101L38.7853 37.3535H51.2588H63.7332V72.5198C63.7332 106.84 63.7746 107.739 65.4489 109.873C67.821 112.898 72.0602 112.898 74.4322 109.873C76.1066 107.739 76.148 106.84 76.148 72.5198V37.3535H88.4982H100.848L101.198 80.7251C101.595 130.078 101.6 130.126 108.851 149.414C113.238 161.083 114.098 166.834 112.6 174.471C111.341 180.887 108.882 185.842 102.111 195.596C84.2109 221.385 83.9784 242.931 101.361 265.21C117.639 286.075 118.471 287.65 119.008 298.617C119.563 309.985 118.227 312.309 100.991 329.956C85.4797 345.836 83.2376 348.549 79.5562 355.89C75.855 363.271 74.4927 369.381 74.4927 378.603C74.4927 392.226 79.0257 402.851 88.7316 411.975C101.153 423.653 121.009 427.947 138.024 422.635C143.068 421.061 143.267 421.06 149.071 422.589C152.322 423.444 157.263 424.372 160.051 424.65C164.491 425.092 165.351 424.935 166.983 423.385C170.851 419.708 168.296 412.565 163.102 412.537C161.936 412.531 160.12 412.295 159.065 412.011L157.148 411.496L159.602 408.91C164.47 403.778 168.845 396.61 168.845 393.767C168.845 388.972 163.257 385.875 159.721 388.711C159.027 389.267 156.697 392.22 154.543 395.273C150.48 401.032 144.338 406.738 142.203 406.738C140.447 406.738 132.337 400.723 130.261 397.881C125.852 391.843 124.675 388.31 124.314 380.023C123.661 365.037 127.735 357.681 147.478 338.2C164.886 321.024 168.765 314.162 168.818 300.455C168.851 291.788 167.258 285.342 163.224 277.819C159.365 270.62 155.448 266.949 152.397 267.671C149.588 268.336 147.326 271.049 147.326 273.752C147.326 274.925 148.783 278.153 150.562 280.923C154.953 287.759 156.43 292.651 156.43 300.355C156.43 310.241 154.659 313.121 138.226 329.956C122.72 345.841 120.48 348.553 116.801 355.89C113.108 363.255 111.737 369.385 111.737 378.54C111.737 391.031 114.851 399.436 122.653 407.998L127.037 412.808L120.008 412.35C104.648 411.349 93.7719 403.495 88.619 389.682C87.3825 386.367 86.9074 383.138 86.9074 378.049C86.9074 364.364 91.2393 356.972 110.249 338.215C128.647 320.061 132.162 313.32 131.397 297.642C130.781 285.021 127.269 277.429 115.357 262.96C103.761 248.874 100.351 240.877 101.192 229.732C101.775 222.005 104.08 215.498 108.869 208.057C110.97 204.794 114.652 199.073 117.053 195.344C123.36 185.546 125.4 178.657 125.367 167.261C125.339 157.569 125.693 158.995 118.365 139.038C114.085 127.384 113.978 126.056 113.615 80.3101L113.274 37.3535H125.684H138.093L138.442 80.7251C138.839 130.078 138.844 130.126 146.095 149.414C150.483 161.083 151.343 166.834 149.844 174.471C148.586 180.887 146.126 185.842 139.356 195.596C127.382 212.846 123.49 227.855 127.055 243.021C128.307 248.347 131.614 255.767 133.892 258.362C135.919 260.67 141.173 260.307 142.849 257.741C144.498 255.217 144.137 252.87 140.999 245.703C138.899 240.909 138.641 239.382 138.684 232.007C138.741 222.144 140.317 217.063 146.113 208.057C148.214 204.794 151.896 199.073 154.297 195.344C160.605 185.546 162.644 178.657 162.611 167.261C162.584 157.569 162.937 158.995 155.609 139.038C151.173 126.956 151.21 127.537 150.699 63.2196L150.223 3.17256L148.269 1.58628C146.387 0.0581055 144.181 0 88.4336 0H30.5518L28.4711 2.08682ZM214.727 2.05195L212.681 4.10474L212.902 182.801L213.124 361.499L215.309 369.385C219.484 384.453 225.608 395.098 235.847 405.078C243.581 412.618 252.676 418.196 263.197 421.852L271.06 424.585L304.58 424.841C337.653 425.095 338.124 425.075 339.962 423.356C342.447 421.032 342.472 416.539 340.012 414.241C338.369 412.706 337.12 412.547 326.563 412.535C312.962 412.517 306.347 411.321 297.823 407.338C281.76 399.83 270.974 386.897 265.106 368.109L262.783 360.669L262.56 199.011L262.337 37.3535H274.768H287.199V89.7032C287.199 122.263 287.505 142.627 288.009 143.571C289.924 147.158 297.662 146.908 299.076 143.213C299.372 142.44 299.614 118.305 299.614 89.5804V37.3535H312.028H324.443V137.701C324.443 234.509 324.498 238.116 325.992 239.966C328.144 242.632 333.158 242.632 335.309 239.966C336.806 238.113 336.858 234.127 336.858 121.062V4.07485L334.826 2.03784L332.795 0H274.784H216.773L214.727 2.05195ZM138.222 18.6768V24.9023H88.5627H38.9037V18.6768V12.4512H88.5627H138.222V18.6768ZM324.443 18.6768V24.9023H274.784H225.125V18.6768V12.4512H274.784H324.443V18.6768ZM250.145 199.426L250.368 361.499L252.553 369.385C257.18 386.083 265.006 398.789 276.653 408.511C282.148 413.097 281.706 413.376 272.166 411.348C251.324 406.918 235.01 390.995 227.862 368.109L225.539 360.669L225.315 199.011L225.093 37.3535H237.508H249.922L250.145 199.426ZM288.998 161.296L287.199 163.217V257.512C287.199 361.769 287.086 359.339 292.45 370.607C300.886 388.328 316.979 398.473 338.88 399.876L346.376 400.357L351.756 405.291C361.108 413.869 379.003 425 383.441 425C386.387 425 389 422.086 389 418.801C389 415.252 387.938 414.213 380.067 410.059C376.559 408.208 371.645 405.209 369.147 403.396L364.606 400.098H374.991C384.3 400.098 385.565 399.922 387.188 398.405C388.37 397.301 389 395.726 389 393.872C389 392.019 388.37 390.443 387.188 389.339C385.49 387.751 384.339 387.646 368.637 387.646H351.896L349.017 383.704C345.152 378.412 341.246 370.547 339.112 363.758C337.43 358.409 337.339 356.118 336.901 308.253C336.466 260.674 336.37 258.245 334.867 256.58C332.544 254.007 328.336 254.245 326.118 257.074C324.364 259.31 324.361 259.405 324.638 309.161C324.908 357.709 324.964 359.182 326.758 365.649C327.771 369.302 330.219 375.559 332.199 379.553C335.679 386.576 335.737 386.816 333.932 386.816C330.708 386.816 321.705 383.657 317.74 381.134C310.309 376.404 305.656 370.593 302.019 361.499L300.028 356.519L299.801 259.847L299.573 163.174L297.794 161.275C295.421 158.741 291.383 158.751 288.998 161.296Z" fill="black"/>
</svg>
