<svg width="400" height="500" viewBox="0 0 400 500" fill="none" xmlns="http://www.w3.org/2000/svg">
<path fill-rule="evenodd" clip-rule="evenodd" d="M13.4559 1.80288C7.79155 3.9847 4.22632 7.07674 1.81128 11.9033C0.20944 15.1018 0 29.3783 0 135.111C0 200.885 0.327625 255.412 0.726621 256.281C1.82299 258.666 7.72486 260.855 11.1333 260.141C17.8858 258.726 17.5512 264.13 17.5512 156.49V57.5789H33.9182H50.2865L50.5919 260.476L50.8984 463.373L53.5557 468.856C55.0171 471.872 58.3401 476.874 60.94 479.972L65.6683 485.606L56.5055 485.163C40.418 484.386 28.3393 477.785 21.3902 465.975L18.1362 460.443L17.8133 372.582L17.4903 284.72L14.977 282.487C11.4106 279.318 5.58244 279.476 2.42557 282.827C0.0140385 285.385 0 285.884 0 370.59C0 424.129 0.441119 457.736 1.18763 461.043C4.27313 474.704 16.6257 488.674 30.6619 494.374C45.2563 500.3 34.9584 499.997 222.066 499.997H393.327L396.891 497.023C399.927 494.488 400.355 493.534 399.783 490.586C398.917 486.136 397.482 484.767 391.276 482.475C383.564 479.629 375.228 472.547 371.36 465.555L367.99 459.467L367.674 320.673C367.378 190.53 367.232 181.785 365.334 180.357C361.505 177.477 357.5 177.35 353.821 179.991L350.439 182.42L350.118 317.036C349.906 405.824 350.207 453.89 351.001 458.223C352.652 467.225 355.97 474.12 361.646 480.35L366.435 485.609L357.05 485.155C339.982 484.33 326.072 476.329 320.64 464.213C318.277 458.939 318.261 457.611 318.261 258.242V57.5789H334.026H349.79L350.114 105.821C350.422 151.681 350.549 154.164 352.668 156.118C355.576 158.8 361.911 158.852 365.065 156.22C367.361 154.302 367.405 152.964 367.405 84.5C367.405 37.5812 366.998 13.8331 366.16 11.9844C364.391 8.07585 359.397 3.9134 353.949 1.80874C349.463 0.0752014 342.391 0 183.702 0C25.207 0 17.9361 0.0771547 13.4559 1.80288ZM348.449 15.7786C349.401 16.5726 349.854 21.1394 349.854 29.9399V42.9292H183.702H17.5512V30.6568C17.5512 23.9072 18.0964 17.5346 18.7622 16.4955C19.951 14.6418 23.0236 14.6066 183.509 14.6066C309.144 14.6066 347.371 14.8782 348.449 15.7786ZM100.909 260.964L101.212 464.35L104.72 470.696C106.649 474.187 109.99 478.97 112.145 481.326L116.061 485.609L106.859 485.165C90.8262 484.391 79.6625 478.679 72.4372 467.558L68.4496 461.42L68.1466 259.499L67.8423 57.5789H84.2234H100.605L100.909 260.964ZM149.779 255.593C149.785 386.972 150.194 455.697 150.995 459.817C152.489 467.506 157.473 476.867 162.732 481.867L166.714 485.652L156.616 485.127C148.152 484.686 145.348 484.08 139.286 481.383C130.461 477.457 123.726 471.282 120.557 464.213C118.193 458.939 118.178 457.611 118.178 258.242V57.5789H133.974H149.77L149.779 255.593ZM200.083 256.681C200.083 386.759 200.493 457.587 201.266 460.987C202.568 466.714 208.842 478.832 211.437 480.629C212.341 481.256 213.641 482.64 214.324 483.706C215.526 485.58 215.266 485.625 206.219 485.107C200.643 484.789 194.703 483.772 191.496 482.588C183.5 479.635 175.197 472.641 171.276 465.555L167.906 459.467L167.597 258.523L167.288 57.5789H183.686H200.083V256.681ZM250.675 260.476L250.982 463.373L253.639 468.856C255.101 471.872 258.424 476.874 261.024 479.972L265.752 485.606L256.589 485.163C240.501 484.386 228.423 477.785 221.474 465.975L218.22 460.443L217.913 259.011L217.608 57.5789H233.989H250.37L250.675 260.476ZM300.989 260.964L301.295 464.35L304.803 470.696C306.733 474.187 310.073 478.97 312.228 481.326L316.145 485.609L306.965 485.156C291.141 484.374 279.63 478.503 272.551 467.606L268.533 461.42L268.23 259.499L267.926 57.5789H284.305H300.683L300.989 260.964Z" fill="white"/>
</svg>
