<svg width="332" height="425" viewBox="0 0 332 425" fill="none" xmlns="http://www.w3.org/2000/svg">
<path fill-rule="evenodd" clip-rule="evenodd" d="M155.602 0.998776C122.917 7.90978 98.7672 33.0178 93.4862 65.5778C92.3952 72.3008 91.5142 74.2138 84.8952 84.2368C76.7462 96.5778 72.0952 106.482 68.0682 120.069L65.4002 129.069L64.6322 188.684L63.8642 248.298L60.5132 254.684C55.2492 264.716 45.0052 274.371 34.1022 279.576C22.9252 284.912 21.6022 286.032 21.6022 290.151C21.6022 294.027 24.1472 296.37 31.2782 299.061C42.8382 303.423 54.2292 313.753 60.5372 325.595L63.9722 332.044L64.3952 365.056L64.8192 398.069L67.7842 403.696C71.8592 411.427 77.8922 417.273 85.6022 420.961L92.1022 424.069L168.37 424.36L244.639 424.651L252.652 420.482C264.97 414.073 271.001 405.733 272.669 392.798C273.146 389.097 273.551 356.744 273.569 320.902L273.602 255.735L277.47 257.854C281.178 259.885 281.447 259.901 283.974 258.245C285.64 257.153 288.252 253.005 291.069 246.977C297.152 233.959 305.332 225.666 318.102 219.569C323.052 217.205 328.114 214.36 329.352 213.246C333.945 209.111 331.333 203.637 323.529 201.045C316.705 198.778 304.758 190.648 299.251 184.524C294.92 179.706 293.758 177.676 288.315 165.421C286.202 160.665 285.298 159.661 282.591 159.067C280.117 158.523 278.71 158.853 276.489 160.495L273.602 162.629V154.323C273.602 127.786 265.697 102.297 251.266 82.2968C246.16 75.2208 245.436 73.5438 243.191 63.5738C236.234 32.6928 215.564 9.64578 188.061 2.10678C179.806 -0.156223 163.669 -0.707223 155.602 0.998776ZM182.362 16.0748C202.945 20.9278 220.001 37.2138 227.365 59.0478L230.07 67.0688L230.086 118.069C230.102 168.141 230.061 169.199 227.86 176.199C226.627 180.12 224.827 184.289 223.86 185.464L222.102 187.6L211.635 184.593C184.128 176.692 152.502 176.572 126.791 184.271C113.149 188.356 113.612 188.515 110.102 178.569L107.102 170.069L107.169 118.069L107.236 66.0688L110.018 58.5688C117.724 37.7938 132.943 22.7288 152.574 16.4458C159.508 14.2268 173.77 14.0488 182.362 16.0748ZM19.5112 47.0618C13.4962 48.9938 6.16923 55.5428 2.85923 61.9458C-0.688772 68.8088 -0.977772 80.6878 2.23323 87.6578C11.3252 107.392 39.0132 110.641 52.5162 93.5578C57.5322 87.2128 58.991 85.761 59 75C59.007 67.549 57.7672 65.4998 55.3902 61.4558C48.1002 49.0558 32.6292 42.8488 19.5112 47.0618ZM36.1852 62.1748C45.6232 66.6538 46.2322 82.1788 37.2012 88.0958C33.7972 90.3258 24.4512 90.3548 21.0792 88.1458C17.1342 85.5608 14.6092 80.6538 14.6092 75.5688C14.6092 64.2998 25.8962 57.2928 36.1852 62.1748ZM92.8912 167.569C93.4452 177.777 96.9102 188.847 102.908 199.565C108.314 209.227 121.618 222.814 131.102 228.36C154.516 242.052 183.861 241.884 206.838 227.926C224.489 217.203 240.095 194.691 243.479 175.069C244.049 171.769 244.826 153.811 245.208 135.162L245.901 101.255L248.222 105.662C252.204 113.226 256.588 128.287 257.599 137.874C258.737 148.678 258.878 380.666 257.752 390.786C256.865 398.764 253.515 403.675 246.524 407.251L242.102 409.513L168.048 409.541L93.9942 409.569L89.3472 406.622C86.7922 405.002 83.4892 401.844 82.0072 399.605L79.3132 395.534L78.8202 364.801L78.3282 334.069L82.5902 325.593C88.6122 313.615 95.5642 307.053 109.19 300.48C117.25 296.592 119.948 294.788 120.714 292.775C122.727 287.479 121.297 285.856 109.928 280.534C100.932 276.322 98.2892 274.509 92.6372 268.675C88.6832 264.594 84.4102 258.828 82.1482 254.524L78.3312 247.26L78.8872 191.165C79.5102 128.343 79.4632 128.804 87.3102 109.43L91.1022 100.069L91.7662 129.569C92.1312 145.794 92.6372 162.894 92.8912 167.569ZM294.366 200.39L303.844 209.711L301.473 211.304C298.285 213.445 285.469 226.35 282.94 229.964L280.915 232.859L277.259 228.07L273.602 223.281V209.428V195.574L277.279 190.455L280.957 185.336L282.922 188.203C284.003 189.779 289.153 195.263 294.366 200.39ZM182.602 194.084C187.827 194.395 196.377 195.746 201.602 197.087C214.993 200.522 215.602 200.716 215.602 201.54C215.602 201.945 212.34 205.12 208.352 208.594C183.972 229.838 151.285 229.593 128.764 207.996C123.326 202.782 122.378 201.426 123.602 200.62C125.843 199.144 145.321 194.66 153.738 193.683C157.788 193.212 163.802 192.983 167.102 193.173C170.402 193.363 177.377 193.773 182.602 194.084ZM76.5102 273.049C79.4012 276.612 84.7212 281.878 88.3302 284.751L94.8942 289.973L91.4982 292.49C87.1992 295.675 77.9122 304.915 74.0562 309.845L71.1022 313.62L66.3802 307.215C63.7832 303.692 58.4882 298.392 54.6152 295.439L47.5722 290.069L50.3372 288.106C55.0712 284.744 66.6012 273.307 68.7332 269.857C69.8512 268.049 70.8752 266.569 71.0092 266.569C71.1432 266.569 73.6192 269.485 76.5102 273.049ZM303.392 291.509C294.093 293.344 286.602 302.962 286.602 313.069C286.602 319.754 290.396 327.462 295.385 330.915C306.723 338.762 322.101 335.235 327.979 323.44C336.603 306.134 322.448 287.751 303.392 291.509ZM312.563 306.548C313.569 307.086 314.886 308.944 315.49 310.677C318.618 319.65 305.703 324.841 302.043 316.081C299.057 308.936 305.728 302.89 312.563 306.548Z" fill="black"/>
</svg>
