<svg width="500" height="500" viewBox="0 0 500 500" fill="none" xmlns="http://www.w3.org/2000/svg">
<path fill-rule="evenodd" clip-rule="evenodd" d="M403.199 2.71889C398.984 4.92018 397.474 6.43003 395.273 10.6441L392.553 15.8485L392.559 42.3499C392.562 58.1652 392.986 70.369 393.609 72.6162C394.917 77.3244 401.108 84.147 405.963 86.2311C407.989 87.1003 412.833 88.7283 416.729 89.8485L423.811 91.8847L423.854 123.339C423.891 150.392 424.124 155.34 425.521 158.7C427.567 163.618 427.471 172.845 425.258 183.689C420.713 205.969 411.533 224.15 398.425 236.829C395.649 239.515 392.752 242.899 391.989 244.349C390.186 247.774 390.214 254.248 392.048 257.795C393.745 261.073 409.754 274.924 414.852 277.523C421.352 280.835 431.068 278.924 436.224 273.317C439.214 270.065 445.421 256.31 449.164 244.642C455.419 225.143 459.397 203.084 460.853 179.828C461.547 168.744 462.076 165.764 463.995 162.112C466.23 157.859 466.311 156.899 466.603 131.046L466.904 104.368L470.021 105.166C471.736 105.604 476.288 105.963 480.138 105.963C486.344 105.963 487.609 105.63 491.284 103.033C498.246 98.1136 499.463 94.5626 499.818 78.1291C500.106 64.857 499.997 63.8305 498.071 61.7709C495.33 58.8391 490.044 58.8088 487.34 61.7113C485.553 63.6284 485.348 65.1197 485.348 76.2091C485.348 86.9431 485.113 88.782 483.562 90.1854C482.579 91.0742 480.838 91.8017 479.692 91.8017C478.546 91.8017 462.756 87.615 444.604 82.4975C417.134 74.753 411.232 72.7783 409.403 70.7235C407.244 68.2985 407.205 67.8044 407.205 43.0677C407.205 19.9083 407.349 17.7519 408.992 16.2655C410.585 14.824 414.627 14.6492 446.447 14.6492C488.473 14.6492 485.348 13.7322 485.348 26.0697C485.348 35.6171 487.292 39.0646 492.674 39.0646C498.266 39.0646 500 35.7089 500 24.8832C500 16.8984 499.684 15.2449 497.281 10.6441C495.079 6.43003 493.569 4.92018 489.354 2.71889L484.149 0H446.277H408.405L403.199 2.71889ZM446.499 98.2904L452.221 99.8959L451.935 127.676L451.649 155.456L449.343 157.323C446.245 159.829 443.741 159.672 440.86 156.791L438.462 154.394V125.539C438.462 103.96 438.754 96.6848 439.619 96.6848C440.256 96.6848 443.351 97.4075 446.499 98.2904ZM242.128 163.642C228.921 167.074 202.187 182.717 179.349 200.376C156.957 217.689 15.1488 331.745 12.404 334.648C7.63731 339.69 2.93408 348.716 1.35266 355.853C0.025206 361.845 -0.149639 370.815 0.0916275 420.432L0.372942 478.053L3.09818 483.602C6.1946 489.906 10.9457 494.501 17.4169 497.452C20.9607 499.068 24.3375 499.553 34.0721 499.844C45.4136 500.182 46.4734 500.057 48.9681 498.093C52.6409 495.202 52.6926 490.242 49.0805 487.402C46.8495 485.647 45.1469 485.377 36.2855 485.377C24.6715 485.377 20.7253 484.09 17.203 479.153C15.3491 476.554 14.9769 474.575 14.7024 465.845L14.3801 455.591L116.01 374.055C171.906 329.21 217.985 292.405 218.407 292.265C218.829 292.125 219.92 294.549 220.831 297.651C225.18 312.449 238.656 321.716 255.803 321.702C275.902 321.684 286.557 315.177 318.974 283.117L335.748 266.528L336.456 272.187C337.811 283.018 333.87 294.58 325.959 302.982C323.636 305.449 271.758 347.496 210.672 396.422L99.6097 485.377L88.0856 485.409C75.8132 485.442 73.9583 486.022 72.33 490.339C71.2878 493.104 72.4238 496.821 74.8794 498.686C76.2342 499.715 92.3414 499.971 157.433 499.995C247.19 500.029 246.883 500.049 260.255 493.661C265.031 491.38 275.091 484.004 292.978 469.67C324.986 444.021 325.155 443.864 325.155 439.844C325.155 436.242 321.474 432.64 317.793 432.64C316.366 432.64 305.653 440.617 287.661 455.08C272.306 467.421 257.191 478.808 254.071 480.382C244.331 485.298 241.427 485.487 180.196 485.176L123.636 484.889L193.304 429.023C231.622 398.296 263.337 373.382 263.783 373.658C264.229 373.933 264.594 374.902 264.595 375.81C264.596 379.27 270.298 389.315 274.317 392.938C285.997 403.468 306.3 405.191 323.361 397.101C330.162 393.875 342.589 383.927 355.683 371.222C361.461 365.616 366.516 361.358 366.917 361.759C367.317 362.161 367.604 366.517 367.555 371.441C367.405 386.339 363.089 394.192 348.355 406.377C342.57 411.159 338.584 415.212 338.215 416.685C336.94 421.762 341.842 426.761 346.816 425.456C350.99 424.361 368.544 408.83 372.785 402.481C382.544 387.869 385.199 369.967 379.859 354.776C378.308 350.362 378.168 349.004 379.139 347.771C379.801 346.93 383.232 342.868 386.761 338.744C399.681 323.646 408.934 307.188 410.696 296.17C411.64 290.271 408.941 282.133 404.85 278.542C395.849 270.641 383.293 271.987 360.952 283.249C355.659 285.918 351.228 288.101 351.107 288.101C350.986 288.101 350.921 283.596 350.964 278.091C351.023 270.186 350.562 266.562 348.771 260.858L346.502 253.635L349.51 249.627C355.073 242.217 363.175 228.088 365.249 222.18C369.304 210.629 366.192 197.904 358.318 193.833C342.964 185.895 313.146 198.999 268.582 233.268C261.349 238.83 254.936 243.571 254.328 243.804C253.597 244.084 253.166 242.318 253.051 238.575C252.956 235.467 252.308 230.725 251.613 228.039L250.347 223.156L254.4 217.785C269.353 197.97 274.41 182.856 269.594 172.372C267.396 167.585 264.886 165.269 260.019 163.533C255.257 161.835 248.935 161.874 242.128 163.642ZM445.975 182.911C444.481 205.649 438.751 232.48 431.556 250.428C426.857 262.151 425.336 264.662 422.935 264.662C421.942 264.662 418.106 262.205 414.411 259.202C403.699 250.496 404.011 251.947 411.239 244.423C426.993 228.023 437.485 204.869 440.9 178.965C441.516 174.292 441.798 173.837 444.074 173.837H446.572L445.975 182.911ZM256.617 180.106C257.499 187.842 250.289 200.366 234.082 219.25C223.006 232.155 199.06 255.61 189.823 262.602C177.922 271.609 163.921 273.837 153.843 268.326C148.751 265.541 145.576 259.481 145.205 251.833L144.938 246.328L168.38 227.558C209.844 194.359 239.716 176.4 252.384 177.053C255.92 177.236 256.323 177.526 256.617 180.106ZM351.333 207.238C353.275 209.179 352.641 215.987 349.988 221.691C344.527 233.431 327.266 254.571 306.435 275.033C290.472 290.714 279.235 300.188 273.063 303.169C263.556 307.763 250.896 308.259 243.35 304.334C237.264 301.168 233.845 294.784 233.195 285.374L232.848 280.36L251.407 265.402C272.752 248.199 285.63 238.413 298.782 229.405C323.724 212.319 346.716 202.621 351.333 207.238ZM236.681 251.919C235.771 254.362 233.657 258.202 231.984 260.452C230.169 262.892 186.011 298.965 122.597 349.812C64.1084 396.71 15.8677 435.228 15.395 435.407C14.1427 435.881 14.3068 365.442 15.5718 359.544C17.9854 348.296 18.4826 347.82 76.5624 301.192C118.791 267.29 130.427 258.401 130.949 259.652C131.314 260.528 132.397 263.442 133.356 266.127C137.243 277.013 149.078 284.763 163.497 285.867C182.091 287.291 196.341 279.011 225.523 249.834L237.732 237.625L238.034 242.55C238.215 245.494 237.671 249.262 236.681 251.919ZM395.893 291.26C399.069 300.344 383.629 322.548 352.564 353.57C324.344 381.751 315.782 387.25 300.247 387.172C285.704 387.098 279.91 381.662 277.821 366.131L277.216 361.636L299.965 343.614C330.094 319.743 332.538 317.912 346.487 308.792C367.095 295.316 383.366 287.853 391.07 288.342C394.325 288.549 395.112 289.025 395.893 291.26Z" fill="white"/>
</svg>
