<svg width="446" height="425" viewBox="0 0 446 425" fill="none" xmlns="http://www.w3.org/2000/svg">
<path fill-rule="evenodd" clip-rule="evenodd" d="M61.3655 2.02755C59.7235 3.83855 59.4155 6.04455 59.1355 17.9975C58.8145 31.6985 58.8405 31.8965 61.3395 34.3955C64.5085 37.5645 67.0685 37.5965 70.6545 34.5145C73.3745 32.1765 73.4715 31.7555 73.8045 20.8005C74.2045 7.68355 73.1115 2.77155 69.4225 1.09055C65.7065 -0.603454 63.5185 -0.348453 61.3655 2.02755ZM285.034 17.5605C282.669 20.5665 282.509 21.8415 284.07 25.2685C287.169 32.0685 296.961 29.7915 296.961 22.2705C296.961 15.3915 289.162 12.3125 285.034 17.5605ZM401.82 24.9375C392.794 29.7065 388.005 37.6755 388.005 47.9255C388.005 63.1005 398.596 73.8915 413.514 73.9155C432.213 73.9455 444.533 54.4335 436.587 37.3695C433.869 31.5325 427.183 25.3595 422.026 23.9275C416.059 22.2695 405.909 22.7775 401.82 24.9375ZM418.796 39.2025C423.248 41.3985 425.421 49.3285 422.875 54.0855C422.278 55.2005 419.821 56.9845 417.414 58.0495C413.445 59.8055 412.718 59.8505 409.578 58.5385C400.127 54.5895 400.057 42.4615 409.461 38.3365C412.539 36.9855 414.71 37.1875 418.796 39.2025ZM23.6155 39.7545C21.4125 42.1885 21.5215 46.1605 23.8705 49.0645C25.6485 51.2635 26.5915 51.4485 37.5925 51.7675C44.2425 51.9595 50.9805 51.6365 53.0075 51.0295C58.8655 49.2745 60.4885 43.5965 56.3235 39.4315C55.1185 38.2265 51.8685 37.9255 40.0445 37.9255C27.0015 37.9255 25.0765 38.1395 23.6155 39.7545ZM76.7885 38.9615C74.2765 40.4275 73.4845 45.5495 75.3335 48.3715C77.4155 51.5505 82.5485 52.3015 96.1185 51.4155C105.382 50.8105 107.397 50.3745 109.028 48.6235C111.518 45.9515 111.491 42.4555 108.961 39.9255C107.145 38.1095 105.651 37.9285 92.7105 37.9555C84.8725 37.9725 77.7085 38.4255 76.7885 38.9615ZM61.6065 54.3775C59.0175 56.7775 58.9605 57.0985 58.9605 69.3125C58.9605 85.9605 60.1115 88.8785 66.6875 88.9105C72.3725 88.9375 73.4605 85.8395 73.4605 69.6325C73.4605 56.2515 73.3755 55.6825 71.0995 53.8385C67.9115 51.2545 64.7845 51.4325 61.6065 54.3775ZM151.542 69.0405C149.377 70.7435 148.913 71.8425 149.157 74.6905C149.777 81.9075 158.274 84.0885 161.496 77.8575C163.537 73.9115 163.338 72.2115 160.506 69.3805C157.496 66.3695 155.055 66.2765 151.542 69.0405ZM13.4925 109.537C8.84952 114.18 2.54752 131.38 1.06752 143.447C-1.70748 166.075 0.766524 181.427 10.3885 201.292C22.0205 225.308 44.5695 247.639 70.2395 260.566C85.0275 268.014 109.676 274.513 127.461 275.655C136.221 276.218 136.554 276.331 139.961 279.904C170.365 311.797 191.939 329.992 210.697 339.56C217.431 342.995 218.199 343.171 221.782 342.098C226.456 340.697 240.544 331.944 254.293 321.896C260.149 317.617 272.731 306.359 283.961 295.351L303.461 276.235L315.756 275.55C322.518 275.173 331.968 274.182 336.756 273.349C387.427 264.524 431.91 226.069 443.158 181.366C446.258 169.046 446.258 146.201 443.159 134.751C440.497 124.919 435.479 112.859 432.895 110.086C428.562 105.434 421.154 108.395 419.531 115.426C418.412 120.274 411.274 131.518 405.907 136.884C394.748 148.044 386.619 150.609 354.961 152.96C346.436 153.593 335.679 154.721 331.057 155.467L322.652 156.824L316.557 151.499C308.392 144.366 301.966 140.574 292.961 137.572C283.092 134.282 273.43 133.415 263.454 134.925C248.739 137.153 238.444 142.256 225.52 153.729L218.636 159.839L214.69 155.355C201.471 140.338 178.866 132.154 158.2 134.904C143.799 136.82 133.648 141.358 122.482 150.87C119.193 153.672 115.935 155.746 115.241 155.48C113.709 154.892 97.1115 153.29 83.4605 152.413C56.7285 150.694 43.8995 144.59 33.1055 128.451C30.3035 124.261 27.3315 118.546 26.5015 115.751C25.6715 112.956 24.1975 110.067 23.2265 109.33C20.7885 107.48 15.4355 107.594 13.4925 109.537ZM31.2025 148.628C45.4695 162.033 56.6175 165.66 90.3785 167.881C99.1325 168.457 106.44 169.072 106.617 169.248C106.793 169.425 105.633 173.362 104.039 177.998C102.445 182.633 100.837 189.188 100.466 192.565C98.7685 207.987 105.491 228.695 119.501 251.208C125.069 260.155 125.152 261.217 120.211 260.386C97.4785 256.564 80.0085 249.928 62.4605 238.45C54.3585 233.151 44.5265 225.027 45.2905 224.263C45.5195 224.034 49.1365 225.208 53.3275 226.873C64.1805 231.184 68.2055 231.681 70.8505 229.036C73.4195 226.467 73.5845 221.889 71.2105 219.069C70.1765 217.84 60.5425 213.545 47.6505 208.565C35.6555 203.931 25.7305 199.979 25.5955 199.783C24.5745 198.294 18.9605 185.022 18.9605 184.096C18.9605 182.35 19.4205 182.469 36.0675 188.535C50.2015 193.685 51.6655 194.03 53.9605 192.749C57.6035 190.715 59.2855 186.733 57.8405 183.562C56.5765 180.788 53.9175 179.523 29.4605 170.059L14.4605 164.254L14.6555 156.34C14.8405 148.811 16.5175 136.452 17.5885 134.719C17.8635 134.273 19.7945 136.05 21.8775 138.668C23.9615 141.285 28.1575 145.767 31.2025 148.628ZM429.921 142.9C430.506 146.489 431.093 152.739 431.223 156.789L431.461 164.151L412.961 171.331C402.786 175.28 392.98 179.387 391.17 180.458C385.837 183.614 385.915 188.884 391.348 192.444C393.932 194.137 394.622 193.967 415.793 186.433C421.475 184.411 426.415 183.046 426.769 183.401C427.124 183.756 425.399 187.904 422.938 192.62L418.461 201.194L401.461 207.572C392.111 211.079 381.986 215.181 378.961 216.688C373.932 219.191 373.435 219.742 373.154 223.119C372.81 227.26 375.517 230.926 378.92 230.926C379.998 230.926 385.285 229.351 390.67 227.426C396.055 225.501 400.622 223.926 400.819 223.926C401.719 223.926 390.07 233.874 384.579 237.797C376.171 243.802 358.294 252.294 347.461 255.427C337.222 258.389 319.643 261.277 316.988 260.435C315.449 259.946 316.049 258.475 321.452 249.478C328.122 238.374 334.205 224.855 336.532 215.966C337.345 212.859 337.961 205.856 337.961 199.716C337.961 190.553 337.524 187.568 335.065 179.921C333.452 174.905 332.576 170.664 333.088 170.348C334.019 169.772 342.89 168.867 366.461 166.943C390.741 164.961 401.641 160.774 414.831 148.366C419.257 144.203 423.858 139.211 425.056 137.273C427.712 132.975 428.438 133.815 429.921 142.9ZM178.419 150.457C191.013 153.737 201.922 161.881 210.461 174.375C212.661 177.594 215.225 180.705 216.158 181.289C218.997 183.063 223.173 180.787 226.961 175.402C232.936 166.908 242.98 157.53 249.304 154.541C273.037 143.324 299.985 150.454 314.355 171.752C324.034 186.098 325.914 201.407 320.113 218.663C316.303 229.996 313.86 234.87 306.194 246.426C297.889 258.946 286.342 272.4 272.217 286.017C257.137 300.553 248.831 307.347 232.544 318.467L219.644 327.274L214.053 324.365C196.089 315.019 161.403 283.192 144.37 260.426C124.575 233.968 114.961 213.711 114.961 198.458C114.961 191.622 118.831 179.405 123.125 172.688C134.443 154.984 158.565 145.286 178.419 150.457ZM269.505 252.676C260.687 262.413 248.336 274.79 240.211 282.032C232.914 288.536 231.955 292.203 236.596 295.853C240.124 298.629 241.691 298.479 247.515 294.811C253.74 290.891 275.17 269.501 281.322 261.066C286.458 254.025 287.108 250.535 283.922 247.115C280.128 243.042 277.21 244.167 269.505 252.676ZM61.5335 300.496C55.3335 306.696 63.1855 316.284 70.5255 311.476C73.6525 309.427 73.8825 303.848 70.9605 300.926C68.5695 298.535 63.7165 298.313 61.5335 300.496ZM412.135 323.24C409.163 326.405 409.349 330.455 412.607 333.474C414.062 334.822 416.022 335.926 416.961 335.926C419.43 335.926 423.961 331.383 423.961 328.908C423.961 326.514 422.207 322.79 420.561 321.691C418.364 320.224 414.26 320.979 412.135 323.24ZM331.654 336.591C328.721 337.408 327.961 341.282 327.961 355.419C327.961 368.663 327.984 368.799 330.596 370.853C333.871 373.429 336.066 373.471 339.1 371.014C341.392 369.159 341.461 368.662 341.461 354.064C341.461 345.068 341.047 338.612 340.43 337.995C339.158 336.723 334.091 335.912 331.654 336.591ZM32.7075 359.082C28.0965 360.365 19.5255 367.898 16.9645 372.918C8.42552 389.657 21.3025 409.973 40.4065 409.904C51.0035 409.866 59.0015 404.446 63.7415 394.094C69.4245 381.679 63.3945 366.576 50.4605 360.834C45.2815 358.534 37.4515 357.761 32.7075 359.082ZM44.9935 374.443C48.4835 376.248 50.9605 380.621 50.9605 384.976C50.9605 389.737 45.3925 394.926 40.2835 394.926C35.5235 394.926 32.1895 392.717 30.3675 388.357C28.0285 382.76 30.0585 377.32 35.5555 374.453C39.2245 372.54 41.3085 372.537 44.9935 374.443ZM348.733 373.57C345.989 374.057 341.961 378.136 341.961 380.426C341.961 381.103 342.894 382.842 344.034 384.291L346.105 386.926H360.962C377.846 386.926 378.961 386.49 378.961 379.89C378.961 377.001 378.437 375.716 376.932 374.91C374.789 373.763 353.375 372.746 348.733 373.57ZM291.996 375.86C290.039 379.517 290.75 383.742 293.642 385.636C295.857 387.088 298.618 387.393 309.555 387.393C321.124 387.393 323.05 387.155 324.874 385.504C327.527 383.104 327.568 378.533 324.961 375.926C323.139 374.104 321.628 373.926 307.996 373.926C294.224 373.926 292.949 374.08 291.996 375.86ZM330.822 389.835C328.575 391.652 328.444 392.426 328.135 405.806C327.813 419.712 327.839 419.895 330.34 422.396C333.527 425.583 336.371 425.607 339.506 422.471C341.872 420.106 341.961 419.523 341.961 406.426C341.961 393.329 341.872 392.746 339.506 390.381C336.557 387.431 333.993 387.27 330.822 389.835ZM188.15 397.965C185.081 400.824 185.281 405.246 188.596 407.853C193.818 411.961 199.961 409.112 199.961 402.581C199.961 396.4 192.824 393.61 188.15 397.965Z" fill="black"/>
</svg>
