<svg width="500" height="500" viewBox="0 0 500 500" fill="none" xmlns="http://www.w3.org/2000/svg">
<path fill-rule="evenodd" clip-rule="evenodd" d="M120.182 21.1397C110.842 32.7659 102.533 43.8726 101.718 45.8186C99.3618 51.4412 100.736 55.739 108.02 65.5294C119.059 80.3664 124.099 96.2451 123.784 115.196C123.688 120.925 123.665 126.689 123.733 128.002C123.803 129.359 133.437 142.461 146.013 158.3C158.199 173.65 167.974 186.408 167.736 186.653C167.498 186.898 151.374 205.929 131.905 228.944C92.4738 275.555 89.2256 279.045 79.6107 285.123C66.8833 293.168 61.0947 294.366 31.759 295.034C6.77875 295.602 5.45095 295.751 3.14096 298.246C1.57201 299.94 0.528316 302.635 0.180744 305.895C-0.286916 310.267 0.0303901 311.472 2.60496 315.083L5.56713 319.24L32.7363 319.124C58.5748 319.013 60.3615 318.855 69.1923 315.898C80.4953 312.114 89.5536 307.075 98.5641 299.555C102.355 296.391 122.293 273.885 143.65 248.661L181.939 203.438L190.523 214.213L199.108 224.989L195.654 238.82C190.203 260.64 191.043 274.107 198.776 288.891C202.781 296.548 207.59 301.55 215.302 306.086C220.257 308.999 222.211 309.436 230.275 309.436C239.439 309.436 239.943 309.275 272.257 295.996C308.607 281.06 311.598 280.396 319.098 285.599C331.258 294.036 333.634 315.37 323.71 326.995C322.339 328.6 308.529 336.147 292.129 344.254C258.754 360.75 256.995 361.789 249.515 369.439C242.286 376.83 236.565 387.11 230.051 404.412C217.378 438.07 198.055 459.297 170.154 470.207L161.444 473.613L83.5014 474.245L5.55932 474.877L2.60106 479.034C0.0313666 482.645 -0.286916 483.853 0.180744 488.223C0.541009 491.597 1.57298 494.179 3.31182 496.056L5.90592 498.857L84.6515 498.494L163.397 498.13L173.051 494.804C185.678 490.452 202.414 480.228 212.362 470.787C228.093 455.857 239.088 438.366 248.431 413.407C253.982 398.58 259.029 390.468 266.361 384.593L270.717 381.104L291.746 407.395C309.155 429.159 313.759 434.25 318.493 436.968C332.668 445.105 348.246 441.973 359.739 428.674L364.058 423.678L369.83 430.588L375.603 437.5H389.6H403.598L418.231 456.009C426.279 466.188 434.277 475.287 436.005 476.229C438.225 477.439 443.362 477.941 453.518 477.941H467.89L476.849 488.971C485.174 499.218 486.092 500 489.792 500C495.245 500 498.707 496.15 499.442 489.268L500 484.055L490.595 472.04L481.191 460.026V439.962V419.898L465.632 400.207L450.075 380.515L449.767 362.466L449.46 344.418L442.191 335.235C438.193 330.184 435.117 325.844 435.356 325.591C435.596 325.338 438.116 323.569 440.955 321.658C447.171 317.479 452.764 310.13 456.47 301.275C458.965 295.315 459.211 293.581 459.217 281.863C459.228 262.292 458.129 259.968 435.04 230.699C424.715 217.609 415.079 206.119 413.629 205.165C409.315 202.328 406.146 203.021 402.499 207.598C398.755 212.298 398.195 216.961 400.787 221.847C401.671 223.513 410.646 235.355 420.73 248.162C432.386 262.963 439.313 272.699 439.744 274.882C440.878 280.618 439.689 289.828 437.264 294.104C432.994 301.632 424.159 304.55 416.966 300.808C414.452 299.5 395.847 276.985 356.465 227.599C325.186 188.373 299.594 155.788 299.594 155.187C299.594 153.278 325.87 155.319 333.766 157.842C342.424 160.61 345.68 159.749 348.499 153.945C350.853 149.1 350.841 146.218 348.446 141.288C346.896 138.098 345.283 136.887 339.906 134.88C326.363 129.825 310.027 128.516 295.145 131.294L287.687 132.686L246.019 80.4363L204.35 28.1863H193.598C175.666 28.1863 166.188 23.6213 152.843 8.55515C146.034 0.867646 144.854 0 141.214 0C137.276 0 136.688 0.591912 120.182 21.1397ZM147.776 35.2476C152.888 40.2169 163.914 47.0441 170.964 49.6054C174.051 50.7267 176.577 52.0245 176.577 52.4902C176.577 52.9547 168.908 62.9498 159.535 74.701C148.36 88.7108 142.335 95.4583 142.036 94.2966C141.786 93.3223 140.827 89.4914 139.905 85.7843C137.584 76.451 133.155 65.5551 128.517 57.7672L124.603 51.1949L133.204 40.3493C138.393 33.8052 142.215 29.8897 142.838 30.4779C143.406 31.0135 145.628 33.1605 147.776 35.2476ZM242.48 177.689L215.63 211.392L181.219 168.2L146.808 125.006L173.646 91.3015L200.486 57.5956L234.909 100.79L269.331 143.985L242.48 177.689ZM374.045 165.477C372.84 166.085 370.956 168.393 369.859 170.607C367.277 175.81 367.968 180.909 371.855 185.355C375.947 190.036 380.777 189.955 384.61 185.143C392.145 175.684 383.971 160.467 374.045 165.477ZM301.782 193.31L323.024 219.952L305.71 241.712L288.395 263.471L279.229 267.304L270.065 271.136L251.395 247.703L232.727 224.271L255.658 195.468C268.269 179.627 279.027 166.667 279.564 166.667C280.1 166.667 290.099 178.656 301.782 193.31ZM346.469 265.305C343.004 269.694 339.786 273.284 339.319 273.284C338.852 273.284 336.694 271.376 334.524 269.045C332.354 266.713 328.206 263.571 325.306 262.062L320.034 259.32L328.594 248.525L337.156 237.729L344.961 247.528L352.768 257.327L346.469 265.305ZM233.162 259.137C244.043 272.814 248.752 279.515 247.796 279.958C231.143 287.662 224.813 287.467 217.711 279.031C213.651 274.207 211.725 268.789 211.725 262.189C211.725 257.021 215.457 238.971 216.525 238.971C216.85 238.971 224.337 248.045 233.162 259.137ZM381.615 352.311L358.186 381.719L345.524 365.862L332.862 350.004L338.235 342.933C341.191 339.043 344.799 332.673 346.254 328.776C348.537 322.662 348.925 319.941 349.093 308.911L349.288 296.13L357.865 285.313L366.443 274.495L385.744 298.699L405.044 322.902L381.615 352.311ZM430.422 367.626V380.549L417.473 396.77L404.523 412.99H393.763H383.004L377.688 406.234L372.372 399.477L395.765 370.094L419.158 340.712L424.791 347.707L430.422 354.702V367.626ZM331.683 382.803C347.83 403.092 349.489 405.56 348.517 407.839C345.732 414.371 337.289 418.202 329.866 416.301C325.915 415.29 323.752 413.033 308.154 393.645C298.626 381.801 291.07 371.811 291.363 371.444C292.061 370.566 311.505 360.548 312.785 360.404C313.327 360.343 321.831 370.423 331.683 382.803ZM451.153 416.339L461.665 429.493V441.462V453.431H452.649H443.635L433.123 440.278C427.342 433.044 422.612 426.575 422.612 425.903C422.612 424.686 439.21 403.186 440.149 403.186C440.42 403.186 445.372 409.105 451.153 416.339Z" fill="white"/>
</svg>
